<?xml version="1.0" encoding="iso-8859-1"?>
<!-- Generator: Adobe Illustrator 18.0.0, SVG Export Plug-In . SVG Version: 6.00 Build 0)  -->
<!DOCTYPE svg PUBLIC "-//W3C//DTD SVG 1.1//EN" "http://www.w3.org/Graphics/SVG/1.1/DTD/svg11.dtd">
<svg version="1.1" xmlns="http://www.w3.org/2000/svg" xmlns:xlink="http://www.w3.org/1999/xlink" x="0px" y="0px"
	 viewBox="0 0 38 48" style="enable-background:new 0 0 38 48;" xml:space="preserve">
<g id="pointer">
	<path style="fill-rule:evenodd;clip-rule:evenodd;fill:#32E0BA;" d="M19,0C5.435,0,0,8.693,0,18.52C0,32.966,19,48,19,48
		s19-15.034,19-29.48C38,8.693,32.565,0,19,0z M19,21c-2.761,0-5-2.239-5-5c0-2.761,2.239-5,5-5s5,2.239,5,5
		C24,18.761,21.761,21,19,21z"/>
	<path style="fill-rule:evenodd;clip-rule:evenodd;fill:#1BC29E;" d="M19,8c-4.418,0-8,3.582-8,8s3.582,8,8,8s8-3.582,8-8
		S23.418,8,19,8z M19,21c-2.761,0-5-2.239-5-5s2.239-5,5-5s5,2.239,5,5S21.761,21,19,21z"/>
</g>
<g id="Layer_1">
</g>
</svg>
