<?xml version="1.0" encoding="iso-8859-1"?>
<!-- Generator: Adobe Illustrator 18.0.0, SVG Export Plug-In . SVG Version: 6.00 Build 0)  -->
<!DOCTYPE svg PUBLIC "-//W3C//DTD SVG 1.1//EN" "http://www.w3.org/Graphics/SVG/1.1/DTD/svg11.dtd">
<svg version="1.1" xmlns="http://www.w3.org/2000/svg" xmlns:xlink="http://www.w3.org/1999/xlink" x="0px" y="0px"
	 viewBox="0 0 48 39.997" style="enable-background:new 0 0 48 39.997;" xml:space="preserve">
<g id="like">
	<path style="fill-rule:evenodd;clip-rule:evenodd;fill:#FB5150;" d="M46.956,18.566c-2.784,6.711-22.618,21.182-22.952,21.425
		c0,0.001-0.001,0.006-0.001,0.006S24.001,39.994,24,39.994c-0.001,0-0.004,0.002-0.004,0.002s-0.001-0.005-0.001-0.006
		C23.662,39.748,3.828,25.278,1.044,18.566c-2.807-6.768,0.244-14.6,6.815-17.491C13.858-1.565,20.715,0.826,24,6.413
		c3.285-5.587,10.142-7.978,16.141-5.338C46.713,3.967,49.764,11.798,46.956,18.566z"/>
	<g style="opacity:0.1;">
		<path style="fill-rule:evenodd;clip-rule:evenodd;" d="M46.954,16.566C44.17,23.278,24,37.748,24,37.991c0,0.001,0,0.006,0,0.006
			v-0.003v0.003c0,0,0-0.005,0-0.006c0-0.243-20.17-14.713-22.954-21.425c-0.578-1.393-0.895-2.83-0.997-4.261
			c-0.157,2.074,0.15,4.215,0.998,6.261C3.831,25.278,24,39.748,24,39.991c0,0.001,0,0.006,0,0.006v-0.003v0.003
			c0,0,0-0.005,0-0.006c0-0.243,20.17-14.713,22.954-21.425c0.848-2.045,1.154-4.187,0.996-6.261
			C47.848,13.736,47.532,15.173,46.954,16.566z"/>
	</g>
</g>
<g id="Layer_1">
</g>
</svg>
